%TF.GenerationSoftware,KiCad,Pcbnew,8.0.6*%
%TF.CreationDate,2024-11-09T17:18:42+01:00*%
%TF.ProjectId,Bridge,42726964-6765-42e6-9b69-6361645f7063,rev?*%
%TF.SameCoordinates,Original*%
%TF.FileFunction,Legend,Bot*%
%TF.FilePolarity,Positive*%
%FSLAX46Y46*%
G04 Gerber Fmt 4.6, Leading zero omitted, Abs format (unit mm)*
G04 Created by KiCad (PCBNEW 8.0.6) date 2024-11-09 17:18:42*
%MOMM*%
%LPD*%
G01*
G04 APERTURE LIST*
%ADD10C,0.150000*%
%ADD11C,0.120000*%
G04 APERTURE END LIST*
D10*
X98554819Y-158736666D02*
X99269104Y-158736666D01*
X99269104Y-158736666D02*
X99411961Y-158689047D01*
X99411961Y-158689047D02*
X99507200Y-158593809D01*
X99507200Y-158593809D02*
X99554819Y-158450952D01*
X99554819Y-158450952D02*
X99554819Y-158355714D01*
X98554819Y-159689047D02*
X98554819Y-159212857D01*
X98554819Y-159212857D02*
X99031009Y-159165238D01*
X99031009Y-159165238D02*
X98983390Y-159212857D01*
X98983390Y-159212857D02*
X98935771Y-159308095D01*
X98935771Y-159308095D02*
X98935771Y-159546190D01*
X98935771Y-159546190D02*
X98983390Y-159641428D01*
X98983390Y-159641428D02*
X99031009Y-159689047D01*
X99031009Y-159689047D02*
X99126247Y-159736666D01*
X99126247Y-159736666D02*
X99364342Y-159736666D01*
X99364342Y-159736666D02*
X99459580Y-159689047D01*
X99459580Y-159689047D02*
X99507200Y-159641428D01*
X99507200Y-159641428D02*
X99554819Y-159546190D01*
X99554819Y-159546190D02*
X99554819Y-159308095D01*
X99554819Y-159308095D02*
X99507200Y-159212857D01*
X99507200Y-159212857D02*
X99459580Y-159165238D01*
X98554819Y-123736666D02*
X99269104Y-123736666D01*
X99269104Y-123736666D02*
X99411961Y-123689047D01*
X99411961Y-123689047D02*
X99507200Y-123593809D01*
X99507200Y-123593809D02*
X99554819Y-123450952D01*
X99554819Y-123450952D02*
X99554819Y-123355714D01*
X98554819Y-124117619D02*
X98554819Y-124736666D01*
X98554819Y-124736666D02*
X98935771Y-124403333D01*
X98935771Y-124403333D02*
X98935771Y-124546190D01*
X98935771Y-124546190D02*
X98983390Y-124641428D01*
X98983390Y-124641428D02*
X99031009Y-124689047D01*
X99031009Y-124689047D02*
X99126247Y-124736666D01*
X99126247Y-124736666D02*
X99364342Y-124736666D01*
X99364342Y-124736666D02*
X99459580Y-124689047D01*
X99459580Y-124689047D02*
X99507200Y-124641428D01*
X99507200Y-124641428D02*
X99554819Y-124546190D01*
X99554819Y-124546190D02*
X99554819Y-124260476D01*
X99554819Y-124260476D02*
X99507200Y-124165238D01*
X99507200Y-124165238D02*
X99459580Y-124117619D01*
X87854819Y-141096666D02*
X88569104Y-141096666D01*
X88569104Y-141096666D02*
X88711961Y-141049047D01*
X88711961Y-141049047D02*
X88807200Y-140953809D01*
X88807200Y-140953809D02*
X88854819Y-140810952D01*
X88854819Y-140810952D02*
X88854819Y-140715714D01*
X88854819Y-142096666D02*
X88854819Y-141525238D01*
X88854819Y-141810952D02*
X87854819Y-141810952D01*
X87854819Y-141810952D02*
X87997676Y-141715714D01*
X87997676Y-141715714D02*
X88092914Y-141620476D01*
X88092914Y-141620476D02*
X88140533Y-141525238D01*
X75121904Y-132954819D02*
X75121904Y-133764342D01*
X75121904Y-133764342D02*
X75074285Y-133859580D01*
X75074285Y-133859580D02*
X75026666Y-133907200D01*
X75026666Y-133907200D02*
X74931428Y-133954819D01*
X74931428Y-133954819D02*
X74740952Y-133954819D01*
X74740952Y-133954819D02*
X74645714Y-133907200D01*
X74645714Y-133907200D02*
X74598095Y-133859580D01*
X74598095Y-133859580D02*
X74550476Y-133764342D01*
X74550476Y-133764342D02*
X74550476Y-132954819D01*
X73550476Y-133954819D02*
X74121904Y-133954819D01*
X73836190Y-133954819D02*
X73836190Y-132954819D01*
X73836190Y-132954819D02*
X73931428Y-133097676D01*
X73931428Y-133097676D02*
X74026666Y-133192914D01*
X74026666Y-133192914D02*
X74121904Y-133240533D01*
X98554819Y-141236666D02*
X99269104Y-141236666D01*
X99269104Y-141236666D02*
X99411961Y-141189047D01*
X99411961Y-141189047D02*
X99507200Y-141093809D01*
X99507200Y-141093809D02*
X99554819Y-140950952D01*
X99554819Y-140950952D02*
X99554819Y-140855714D01*
X98888152Y-142141428D02*
X99554819Y-142141428D01*
X98507200Y-141903333D02*
X99221485Y-141665238D01*
X99221485Y-141665238D02*
X99221485Y-142284285D01*
X98554819Y-106096666D02*
X99269104Y-106096666D01*
X99269104Y-106096666D02*
X99411961Y-106049047D01*
X99411961Y-106049047D02*
X99507200Y-105953809D01*
X99507200Y-105953809D02*
X99554819Y-105810952D01*
X99554819Y-105810952D02*
X99554819Y-105715714D01*
X98650057Y-106525238D02*
X98602438Y-106572857D01*
X98602438Y-106572857D02*
X98554819Y-106668095D01*
X98554819Y-106668095D02*
X98554819Y-106906190D01*
X98554819Y-106906190D02*
X98602438Y-107001428D01*
X98602438Y-107001428D02*
X98650057Y-107049047D01*
X98650057Y-107049047D02*
X98745295Y-107096666D01*
X98745295Y-107096666D02*
X98840533Y-107096666D01*
X98840533Y-107096666D02*
X98983390Y-107049047D01*
X98983390Y-107049047D02*
X99554819Y-106477619D01*
X99554819Y-106477619D02*
X99554819Y-107096666D01*
D11*
%TO.C,J5*%
X99690000Y-156470000D02*
X99690000Y-154670000D01*
X99910000Y-165730000D02*
X99910000Y-152410000D01*
X103240000Y-152410000D02*
X99910000Y-152410000D01*
X103240000Y-165730000D02*
X99910000Y-165730000D01*
X106760000Y-152410000D02*
X114870000Y-152410000D01*
X114870000Y-151760000D02*
X114870000Y-152410000D01*
X114870000Y-165730000D02*
X106760000Y-165730000D01*
X114870000Y-165730000D02*
X114870000Y-166380000D01*
X114870000Y-166380000D02*
X115390000Y-166380000D01*
X115390000Y-151760000D02*
X114870000Y-151760000D01*
X115390000Y-166380000D02*
X115390000Y-151760000D01*
%TO.C,J3*%
X99690000Y-121470000D02*
X99690000Y-119670000D01*
X99910000Y-130730000D02*
X99910000Y-117410000D01*
X103240000Y-117410000D02*
X99910000Y-117410000D01*
X103240000Y-130730000D02*
X99910000Y-130730000D01*
X106760000Y-117410000D02*
X114870000Y-117410000D01*
X114870000Y-116760000D02*
X114870000Y-117410000D01*
X114870000Y-130730000D02*
X106760000Y-130730000D01*
X114870000Y-130730000D02*
X114870000Y-131380000D01*
X114870000Y-131380000D02*
X115390000Y-131380000D01*
X115390000Y-116760000D02*
X114870000Y-116760000D01*
X115390000Y-131380000D02*
X115390000Y-116760000D01*
%TO.C,J1*%
X72110000Y-134120000D02*
X72110000Y-148740000D01*
X72110000Y-148740000D02*
X72630000Y-148740000D01*
X72630000Y-134120000D02*
X72110000Y-134120000D01*
X72630000Y-134770000D02*
X72630000Y-134120000D01*
X72630000Y-134770000D02*
X80740000Y-134770000D01*
X72630000Y-148740000D02*
X72630000Y-148090000D01*
X80740000Y-148090000D02*
X72630000Y-148090000D01*
X84260000Y-134770000D02*
X87590000Y-134770000D01*
X84260000Y-148090000D02*
X87590000Y-148090000D01*
X87590000Y-134770000D02*
X87590000Y-148090000D01*
X87810000Y-144030000D02*
X87810000Y-145830000D01*
%TO.C,U1*%
X72000000Y-100290000D02*
X72000000Y-132620000D01*
X72000000Y-132620000D02*
X95320000Y-132620000D01*
X95320000Y-125720000D02*
X97860000Y-125720000D01*
X95320000Y-132620000D02*
X95320000Y-125720000D01*
X95730000Y-98160000D02*
X74120000Y-98160000D01*
X97860000Y-100290000D02*
X97860000Y-125720000D01*
X72000000Y-100290000D02*
G75*
G02*
X74130000Y-98160000I2130000J0D01*
G01*
X95730000Y-98160000D02*
G75*
G02*
X97860000Y-100290000I-2J-2130002D01*
G01*
D10*
X98900000Y-107135000D02*
X98265000Y-106500000D01*
X98900000Y-105865000D01*
X98900000Y-107135000D01*
G36*
X98900000Y-107135000D02*
G01*
X98265000Y-106500000D01*
X98900000Y-105865000D01*
X98900000Y-107135000D01*
G37*
D11*
%TO.C,J4*%
X99690000Y-138970000D02*
X99690000Y-137170000D01*
X99910000Y-148230000D02*
X99910000Y-134910000D01*
X103240000Y-134910000D02*
X99910000Y-134910000D01*
X103240000Y-148230000D02*
X99910000Y-148230000D01*
X106760000Y-134910000D02*
X114870000Y-134910000D01*
X114870000Y-134260000D02*
X114870000Y-134910000D01*
X114870000Y-148230000D02*
X106760000Y-148230000D01*
X114870000Y-148230000D02*
X114870000Y-148880000D01*
X114870000Y-148880000D02*
X115390000Y-148880000D01*
X115390000Y-134260000D02*
X114870000Y-134260000D01*
X115390000Y-148880000D02*
X115390000Y-134260000D01*
%TO.C,J2*%
X99690000Y-103830000D02*
X99690000Y-102030000D01*
X99910000Y-113090000D02*
X99910000Y-99770000D01*
X103240000Y-99770000D02*
X99910000Y-99770000D01*
X103240000Y-113090000D02*
X99910000Y-113090000D01*
X106760000Y-99770000D02*
X114870000Y-99770000D01*
X114870000Y-99120000D02*
X114870000Y-99770000D01*
X114870000Y-113090000D02*
X106760000Y-113090000D01*
X114870000Y-113090000D02*
X114870000Y-113740000D01*
X114870000Y-113740000D02*
X115390000Y-113740000D01*
X115390000Y-99120000D02*
X114870000Y-99120000D01*
X115390000Y-113740000D02*
X115390000Y-99120000D01*
%TD*%
M02*
