%TF.GenerationSoftware,KiCad,Pcbnew,8.0.6*%
%TF.CreationDate,2024-11-09T17:18:42+01:00*%
%TF.ProjectId,Bridge,42726964-6765-42e6-9b69-6361645f7063,rev?*%
%TF.SameCoordinates,Original*%
%TF.FileFunction,Legend,Top*%
%TF.FilePolarity,Positive*%
%FSLAX46Y46*%
G04 Gerber Fmt 4.6, Leading zero omitted, Abs format (unit mm)*
G04 Created by KiCad (PCBNEW 8.0.6) date 2024-11-09 17:18:42*
%MOMM*%
%LPD*%
G01*
G04 APERTURE LIST*
%ADD10C,0.150000*%
%ADD11C,0.120000*%
G04 APERTURE END LIST*
D10*
X91688095Y-133414819D02*
X91688095Y-134224342D01*
X91688095Y-134224342D02*
X91735714Y-134319580D01*
X91735714Y-134319580D02*
X91783333Y-134367200D01*
X91783333Y-134367200D02*
X91878571Y-134414819D01*
X91878571Y-134414819D02*
X92069047Y-134414819D01*
X92069047Y-134414819D02*
X92164285Y-134367200D01*
X92164285Y-134367200D02*
X92211904Y-134319580D01*
X92211904Y-134319580D02*
X92259523Y-134224342D01*
X92259523Y-134224342D02*
X92259523Y-133414819D01*
X92688095Y-133510057D02*
X92735714Y-133462438D01*
X92735714Y-133462438D02*
X92830952Y-133414819D01*
X92830952Y-133414819D02*
X93069047Y-133414819D01*
X93069047Y-133414819D02*
X93164285Y-133462438D01*
X93164285Y-133462438D02*
X93211904Y-133510057D01*
X93211904Y-133510057D02*
X93259523Y-133605295D01*
X93259523Y-133605295D02*
X93259523Y-133700533D01*
X93259523Y-133700533D02*
X93211904Y-133843390D01*
X93211904Y-133843390D02*
X92640476Y-134414819D01*
X92640476Y-134414819D02*
X93259523Y-134414819D01*
D11*
%TO.C,U2*%
X89450000Y-134660000D02*
X91950000Y-134660000D01*
X89450000Y-137160000D02*
X89450000Y-134660000D01*
X89830000Y-135040000D02*
X89830000Y-146880000D01*
X89830000Y-135040000D02*
X97570000Y-135040000D01*
X89830000Y-146880000D02*
X97570000Y-146880000D01*
X97570000Y-135040000D02*
X97570000Y-146880000D01*
%TD*%
M02*
